<svg t="1717465447007" class="icon" viewBox="0 0 1024 1024" version="1.1" xmlns="http://www.w3.org/2000/svg" p-id="8966" width="200" height="200"><path d="M810.7 418.8c0-176.7-143.3-320-320-320H320C143.3 98.8 0 242 0 418.8c0 114.6 60.5 214.9 151 271.4l19.6 176.6 142.6-128.3c2.3 0 4.5 0.3 6.7 0.3h170.7c176.8 0 320.1-143.3 320.1-320z m-181.4-42.7c29.4 0 53.3 23.9 53.3 53.3s-23.9 53.3-53.3 53.3c-29.5 0-53.3-23.9-53.3-53.3s23.9-53.3 53.3-53.3zM202.7 482.8c-29.4 0-53.3-23.9-53.3-53.3s23.9-53.3 53.3-53.3c29.5 0 53.3 23.9 53.3 53.3s-23.9 53.3-53.3 53.3z m213.3 0c-29.5 0-53.3-23.9-53.3-53.3s23.9-53.3 53.3-53.3 53.3 23.9 53.3 53.3-23.8 53.3-53.3 53.3z m608 85.3c0-112.7-67.3-209.5-163.9-252.9 9.2 33 14.5 67.6 14.5 103.6 0 212.1-171.9 384-384 384h-19.3c42.7 26.9 93.1 42.7 147.3 42.7h93.1l179.4 108.1-11.4-142.1c86-47.2 144.3-138.5 144.3-243.4z" fill="#1098f3" p-id="8967"></path></svg>