<?xml version="1.0" standalone="no"?><!DOCTYPE svg PUBLIC "-//W3C//DTD SVG 1.1//EN" "http://www.w3.org/Graphics/SVG/1.1/DTD/svg11.dtd"><svg class="icon" width="200px" height="200.00px" viewBox="0 0 1024 1024" version="1.1" xmlns="http://www.w3.org/2000/svg"><path d="M192 384h640a42.666667 42.666667 0 0 1 42.666667 42.666667v362.666666a42.666667 42.666667 0 0 1-42.666667 42.666667H192v106.666667a21.333333 21.333333 0 0 0 21.333333 21.333333h725.333334a21.333333 21.333333 0 0 0 21.333333-21.333333V308.821333L949.909333 298.666667h-126.528A98.048 98.048 0 0 1 725.333333 200.618667V72.661333L716.714667 64H213.333333a21.333333 21.333333 0 0 0-21.333333 21.333333v298.666667zM128 832H42.666667a42.666667 42.666667 0 0 1-42.666667-42.666667V426.666667a42.666667 42.666667 0 0 1 42.666667-42.666667h85.333333V85.333333a85.333333 85.333333 0 0 1 85.333333-85.333333h530.026667L1024 282.453333V938.666667a85.333333 85.333333 0 0 1-85.333333 85.333333H213.333333a85.333333 85.333333 0 0 1-85.333333-85.333333v-106.666667zM90.197333 472.490667V746.666667h204.288v-38.4h-159.36v-82.944h143.616v-38.4H135.125333v-76.032h152.832v-38.4h-197.76z m227.712 0l91.776 132.48L311.765333 746.666667h54.912l70.656-105.984L507.989333 746.666667h54.912l-98.688-141.696 92.544-132.48h-54.912L437.333333 569.258667l-64.512-96.768h-54.912z m273.792 0V746.666667h204.288v-38.4h-159.36v-82.944h143.616v-38.4h-143.616v-76.032h152.832v-38.4h-197.76z" fill="#F6E400" /></svg>