<?xml version="1.0" standalone="no"?><!DOCTYPE svg PUBLIC "-//W3C//DTD SVG 1.1//EN" "http://www.w3.org/Graphics/SVG/1.1/DTD/svg11.dtd"><svg class="icon" width="200px" height="200.00px" viewBox="0 0 1024 1024" version="1.1" xmlns="http://www.w3.org/2000/svg"><path d="M192 384h640a42.666667 42.666667 0 0 1 42.666667 42.666667v362.666666a42.666667 42.666667 0 0 1-42.666667 42.666667H192v106.666667a21.333333 21.333333 0 0 0 21.333333 21.333333h725.333334a21.333333 21.333333 0 0 0 21.333333-21.333333V308.821333L949.909333 298.666667h-126.528A98.048 98.048 0 0 1 725.333333 200.618667V72.661333L716.714667 64H213.333333a21.333333 21.333333 0 0 0-21.333333 21.333333v298.666667zM128 832H42.666667a42.666667 42.666667 0 0 1-42.666667-42.666667V426.666667a42.666667 42.666667 0 0 1 42.666667-42.666667h85.333333V85.333333a85.333333 85.333333 0 0 1 85.333333-85.333333h530.026667L1024 282.453333V938.666667a85.333333 85.333333 0 0 1-85.333333 85.333333H213.333333a85.333333 85.333333 0 0 1-85.333333-85.333333v-106.666667zM64 472.490667L128.896 746.666667h39.573333l44.309334-206.208h1.28L258.026667 746.666667h39.253333l65.194667-274.176h-41.770667l-42.432 208.512h-1.258667l-44.629333-208.512H194.090667l-44.629334 208.512h-1.28L105.813333 472.490667H64z m322.24 0V746.666667h40.576v-105.216h61.397333c60.352 0 90.517333-28.416 90.517334-84.864 0-56.064-30.165333-84.096-89.813334-84.096h-102.677333z m40.576 38.4h58.965333c17.706667 0 30.869333 3.456 39.189334 10.752 8.32 6.912 12.842667 18.432 12.842666 34.944 0 16.512-4.16 28.416-12.48 35.712-8.32 6.912-21.504 10.752-39.552 10.752h-58.965333v-92.16z m274.005333-43.776c-26.709333 0-48.554667 6.528-65.898666 19.968-18.730667 13.824-27.733333 33.024-27.733334 57.216s9.365333 42.624 28.437334 55.296c7.274667 4.608 26.346667 12.288 56.874666 23.04 27.392 9.216 43.349333 15.36 48.213334 18.048 15.253333 8.448 23.253333 19.968 23.253333 34.56 0 11.52-5.546667 20.352-15.978667 27.264-10.389333 6.528-24.96 9.984-43.008 9.984-20.458667 0-35.370667-4.224-45.077333-11.904-10.752-8.832-17.344-23.808-20.117333-44.544h-40.234667c1.728 34.944 13.184 60.288 33.984 76.416 17.002667 13.056 40.938667 19.584 71.466667 19.584 31.552 0 56.170667-7.296 73.514666-21.12 17.344-14.208 26.026667-33.792 26.026667-58.368 0-25.344-10.773333-44.928-32.277333-59.136-9.706667-6.144-31.210667-15.36-64.853334-26.88-22.890667-8.064-37.12-13.824-42.304-16.896-11.797333-6.912-17.344-16.512-17.344-28.032 0-13.056 4.842667-22.656 15.253334-28.416 8.32-4.992 20.117333-7.296 35.733333-7.296 18.026667 0 31.893333 3.456 40.917333 11.136 9.024 7.296 15.616 19.584 19.072 36.48h40.234667c-2.432-29.952-12.48-52.224-29.824-66.432-16.298667-13.44-39.189333-19.968-68.330667-19.968z" fill="#33D39D" /></svg>